<?xml version="1.0" encoding="UTF-8" standalone="no"?>
<!DOCTYPE svg PUBLIC "-//W3C//DTD SVG 1.1//EN" "http://www.w3.org/Graphics/SVG/1.1/DTD/svg11.dtd">
<svg width="100%" height="100%" viewBox="0 0 397 152" version="1.1" xmlns="http://www.w3.org/2000/svg" xmlns:xlink="http://www.w3.org/1999/xlink" xml:space="preserve" xmlns:serif="http://www.serif.com/" style="fill-rule:evenodd;clip-rule:evenodd;stroke-linejoin:round;stroke-miterlimit:2;">
    <g transform="matrix(0.681313,0,0,0.681313,-241.01,-489.982)">
        <g transform="matrix(1.93577,0,0,1.37719,-239.341,374.69)">
            <g transform="matrix(0.663895,0,0,0.933164,102.848,16.709)">
                <path d="M352.944,286.72C361.104,286.72 367.704,290.08 372.744,296.8C377.784,303.52 380.304,313.216 380.304,325.888C380.304,334.24 378.864,341.344 375.984,347.2C373.104,353.056 369.24,357.472 364.392,360.448C359.544,363.424 354.144,364.912 348.192,364.912C344.64,364.912 341.208,364.192 337.896,362.752C334.584,361.312 331.68,359.248 329.184,356.56L318.96,365.2L316.512,364.192C317.184,361.792 317.52,359.008 317.52,355.84L317.52,267.424C317.52,263.008 316.704,259.792 315.072,257.776C313.44,255.76 310.608,254.752 306.576,254.752L306.576,251.728C309.648,252.016 312.624,252.16 315.504,252.16C321.552,252.16 326.544,251.488 330.48,250.144L330.48,302.128C332.592,297.232 335.64,293.44 339.624,290.752C343.608,288.064 348.048,286.72 352.944,286.72ZM347.04,361.6C353.472,361.6 358.296,358.696 361.512,352.888C364.728,347.08 366.336,338.08 366.336,325.888C366.336,314.176 364.896,305.44 362.016,299.68C359.136,293.92 354.72,291.04 348.768,291.04C344.736,291.04 341.04,292.6 337.68,295.72C334.32,298.84 331.92,303.232 330.48,308.896L330.48,354.544C332.688,356.848 335.232,358.6 338.112,359.8C340.992,361 343.968,361.6 347.04,361.6Z" style="fill-rule:nonzero;"/>
            </g>
            <g transform="matrix(0.663895,0,0,0.933164,102.848,16.709)">
                <path d="M453.744,345.616C452.016,350.896 448.776,355.432 444.024,359.224C439.272,363.016 433.536,364.912 426.816,364.912C420,364.912 414.096,363.352 409.104,360.232C404.112,357.112 400.296,352.744 397.656,347.128C395.016,341.512 393.696,335.008 393.696,327.616C393.696,319.264 395.04,312.016 397.728,305.872C400.416,299.728 404.208,295 409.104,291.688C414,288.376 419.712,286.72 426.24,286.72C434.88,286.72 441.528,289.336 446.184,294.568C450.84,299.8 453.168,307.744 453.168,318.4L408.096,318.4C407.808,321.088 407.664,324.16 407.664,327.616C407.664,333.952 408.696,339.472 410.76,344.176C412.824,348.88 415.56,352.504 418.968,355.048C422.376,357.592 425.952,358.864 429.696,358.864C434.304,358.864 438.384,357.76 441.936,355.552C445.488,353.344 448.464,349.648 450.864,344.464L453.744,345.616ZM425.664,289.456C421.152,289.456 417.264,291.664 414,296.08C410.736,300.496 408.72,307.024 407.952,315.664L439.344,315.664C439.536,308.176 438.456,301.936 436.104,296.944C433.752,291.952 430.272,289.456 425.664,289.456Z" style="fill-rule:nonzero;"/>
            </g>
            <g transform="matrix(0.663895,0,0,0.933164,102.848,16.709)">
                <path d="M486.72,304C489.12,297.952 492.456,293.56 496.728,290.824C501,288.088 505.824,286.72 511.2,286.72C517.92,286.72 523.008,288.544 526.464,292.192C528.288,294.112 529.584,296.512 530.352,299.392C531.12,302.272 531.504,306.16 531.504,311.056L531.504,349.504C531.504,353.44 532.32,356.152 533.952,357.64C535.584,359.128 538.416,359.872 542.448,359.872L542.448,362.896C533.616,362.512 527.856,362.32 525.168,362.32C522.48,362.32 517.104,362.512 509.04,362.896L509.04,359.872C512.592,359.872 515.064,359.128 516.456,357.64C517.848,356.152 518.544,353.44 518.544,349.504L518.544,307.888C518.544,302.512 517.776,298.408 516.24,295.576C514.704,292.744 511.584,291.328 506.88,291.328C502.944,291.328 499.464,292.432 496.44,294.64C493.416,296.848 491.04,299.944 489.312,303.928C487.584,307.912 486.72,312.4 486.72,317.392L486.72,349.504C486.72,353.44 487.416,356.152 488.808,357.64C490.2,359.128 492.672,359.872 496.224,359.872L496.224,362.896C488.16,362.512 482.784,362.32 480.096,362.32C477.408,362.32 471.648,362.512 462.816,362.896L462.816,359.872C466.848,359.872 469.68,359.128 471.312,357.64C472.944,356.152 473.76,353.44 473.76,349.504L473.76,267.424C473.76,263.008 472.944,259.792 471.312,257.776C469.68,255.76 466.848,254.752 462.816,254.752L462.816,251.728C465.888,252.016 468.864,252.16 471.744,252.16C477.792,252.16 482.784,251.488 486.72,250.144L486.72,304Z" style="fill-rule:nonzero;"/>
            </g>
            <g transform="matrix(0.663895,0,0,0.933164,102.848,16.709)">
                <path d="M584.064,286.72C593.856,286.72 601.752,289.96 607.752,296.44C613.752,302.92 616.752,312.736 616.752,325.888C616.752,339.04 613.752,348.832 607.752,355.264C601.752,361.696 593.856,364.912 584.064,364.912C574.272,364.912 566.376,361.696 560.376,355.264C554.376,348.832 551.376,339.04 551.376,325.888C551.376,312.736 554.376,302.92 560.376,296.44C566.376,289.96 574.272,286.72 584.064,286.72ZM584.064,289.6C578.304,289.6 573.744,292.552 570.384,298.456C567.024,304.36 565.344,313.504 565.344,325.888C565.344,338.272 567.024,347.392 570.384,353.248C573.744,359.104 578.304,362.032 584.064,362.032C589.824,362.032 594.384,359.104 597.744,353.248C601.104,347.392 602.784,338.272 602.784,325.888C602.784,313.504 601.104,304.36 597.744,298.456C594.384,292.552 589.824,289.6 584.064,289.6Z" style="fill-rule:nonzero;"/>
            </g>
            <g transform="matrix(0.663895,0,0,0.933164,102.848,16.709)">
                <path d="M662.976,286.72C672.768,286.72 680.664,289.96 686.664,296.44C692.664,302.92 695.664,312.736 695.664,325.888C695.664,339.04 692.664,348.832 686.664,355.264C680.664,361.696 672.768,364.912 662.976,364.912C653.184,364.912 645.288,361.696 639.288,355.264C633.288,348.832 630.288,339.04 630.288,325.888C630.288,312.736 633.288,302.92 639.288,296.44C645.288,289.96 653.184,286.72 662.976,286.72ZM662.976,289.6C657.216,289.6 652.656,292.552 649.296,298.456C645.936,304.36 644.256,313.504 644.256,325.888C644.256,338.272 645.936,347.392 649.296,353.248C652.656,359.104 657.216,362.032 662.976,362.032C668.736,362.032 673.296,359.104 676.656,353.248C680.016,347.392 681.696,338.272 681.696,325.888C681.696,313.504 680.016,304.36 676.656,298.456C673.296,292.552 668.736,289.6 662.976,289.6Z" style="fill-rule:nonzero;"/>
            </g>
            <g transform="matrix(0.663895,0,0,0.933164,102.848,16.709)">
                <path d="M742.176,250.288C747.168,250.288 751.344,251.584 754.704,254.176C757.68,256.576 759.168,259.552 759.168,263.104C759.168,265.312 758.448,267.136 757.008,268.576C755.568,270.016 753.744,270.736 751.536,270.736C749.328,270.736 747.456,270.04 745.92,268.648C744.384,267.256 743.616,265.36 743.616,262.96C743.616,260.944 744.168,259.312 745.272,258.064C746.376,256.816 747.84,256 749.664,255.616C749.376,254.656 748.608,253.888 747.36,253.312C746.112,252.736 744.528,252.448 742.608,252.448C740.496,252.448 738.624,252.928 736.992,253.888C735.36,254.848 734.112,256.144 733.248,257.776C732.192,259.696 731.496,262.528 731.16,266.272C730.824,270.016 730.656,276.304 730.656,285.136L730.656,288.88L746.064,288.88L746.064,291.76L730.656,291.76L730.656,348.064C730.656,352.48 731.928,355.552 734.472,357.28C737.016,359.008 740.832,359.872 745.92,359.872L745.92,362.896L742.464,362.752C732.672,362.464 726.432,362.32 723.744,362.32C721.248,362.32 715.584,362.512 706.752,362.896L706.752,359.872C710.784,359.872 713.616,359.128 715.248,357.64C716.88,356.152 717.696,353.44 717.696,349.504L717.696,291.76L706.176,291.76L706.176,288.88L717.696,288.88C717.696,280.432 718.224,273.904 719.28,269.296C720.336,264.688 722.256,260.752 725.04,257.488C726.96,255.28 729.408,253.528 732.384,252.232C735.36,250.936 738.624,250.288 742.176,250.288Z" style="fill-rule:nonzero;"/>
            </g>
        </g>
        <g transform="matrix(1.93577,0,0,0.57462,-239.341,742.931)">
            <g transform="matrix(0.663895,0,0,2.23651,102.848,-309.129)">
                <path d="M325.948,292.955C323.107,292.955 320.545,292.303 318.261,290.998C315.977,289.692 314.182,287.879 312.877,285.556C311.572,283.234 310.919,280.614 310.919,277.696C310.919,274.779 311.572,272.159 312.877,269.837C314.182,267.514 315.977,265.7 318.261,264.395C320.545,263.09 323.107,262.437 325.948,262.437C328.789,262.437 331.351,263.09 333.635,264.395C335.919,265.7 337.714,267.514 339.019,269.837C340.324,272.159 340.977,274.779 340.977,277.696C340.977,280.614 340.324,283.234 339.019,285.556C337.714,287.879 335.919,289.692 333.635,290.998C331.351,292.303 328.789,292.955 325.948,292.955ZM325.948,290.364C328.251,290.364 330.315,289.827 332.138,288.752C333.961,287.677 335.401,286.18 336.457,284.261C337.512,282.341 338.04,280.153 338.04,277.696C338.04,275.24 337.512,273.052 336.457,271.132C335.401,269.213 333.961,267.716 332.138,266.641C330.315,265.566 328.251,265.029 325.948,265.029C323.645,265.029 321.581,265.566 319.758,266.641C317.935,267.716 316.495,269.213 315.439,271.132C314.384,273.052 313.856,275.24 313.856,277.696C313.856,280.153 314.384,282.341 315.439,284.261C316.495,286.18 317.935,287.677 319.758,288.752C321.581,289.827 323.645,290.364 325.948,290.364Z" style="fill-rule:nonzero;"/>
            </g>
            <g transform="matrix(0.663895,0,0,2.23651,102.848,-309.129)">
                <path d="M364.585,262.437C368.347,262.437 371.322,263.532 373.51,265.72C375.698,267.908 376.792,271.055 376.792,275.163L376.792,292.725L373.913,292.725L373.913,275.393C373.913,272.015 373.059,269.443 371.351,267.677C369.642,265.912 367.253,265.029 364.182,265.029C360.65,265.029 357.867,266.084 355.833,268.196C353.798,270.307 352.781,273.148 352.781,276.718L352.781,292.725L349.902,292.725L349.902,262.668L352.666,262.668L352.666,269.174C353.702,267.063 355.247,265.413 357.301,264.223C359.355,263.032 361.783,262.437 364.585,262.437Z" style="fill-rule:nonzero;"/>
            </g>
            <g transform="matrix(0.663895,0,0,2.23651,102.848,-309.129)">
                <rect x="388.654" y="250" width="2.879" height="42.725" style="fill-rule:nonzero;"/>
            </g>
            <g transform="matrix(0.663895,0,0,2.23651,102.848,-309.129)">
                <path d="M403.682,262.668L406.561,262.668L406.561,292.725L403.682,292.725L403.682,262.668ZM405.122,255.355C404.469,255.355 403.913,255.134 403.452,254.693C402.991,254.251 402.761,253.704 402.761,253.052C402.761,252.399 402.991,251.843 403.452,251.382C403.913,250.921 404.469,250.691 405.122,250.691C405.774,250.691 406.331,250.912 406.792,251.353C407.252,251.795 407.483,252.342 407.483,252.994C407.483,253.647 407.252,254.203 406.792,254.664C406.331,255.125 405.774,255.355 405.122,255.355Z" style="fill-rule:nonzero;"/>
            </g>
            <g transform="matrix(0.663895,0,0,2.23651,102.848,-309.129)">
                <path d="M433.394,262.437C437.156,262.437 440.131,263.532 442.319,265.72C444.507,267.908 445.601,271.055 445.601,275.163L445.601,292.725L442.722,292.725L442.722,275.393C442.722,272.015 441.868,269.443 440.16,267.677C438.452,265.912 436.062,265.029 432.991,265.029C429.459,265.029 426.676,266.084 424.642,268.196C422.607,270.307 421.59,273.148 421.59,276.718L421.59,292.725L418.711,292.725L418.711,262.668L421.475,262.668L421.475,269.174C422.511,267.063 424.056,265.413 426.11,264.223C428.164,263.032 430.592,262.437 433.394,262.437Z" style="fill-rule:nonzero;"/>
            </g>
            <g transform="matrix(0.663895,0,0,2.23651,102.848,-309.129)">
                <path d="M482.914,278.387L457.06,278.387C457.137,280.729 457.732,282.812 458.845,284.635C459.958,286.458 461.465,287.869 463.365,288.867C465.265,289.865 467.405,290.364 469.785,290.364C471.743,290.364 473.557,290.009 475.227,289.299C476.897,288.589 478.288,287.543 479.401,286.161L481.071,288.061C479.766,289.635 478.125,290.844 476.148,291.689C474.171,292.533 472.031,292.955 469.728,292.955C466.733,292.955 464.066,292.303 461.724,290.998C459.382,289.692 457.549,287.888 456.225,285.585C454.901,283.282 454.238,280.652 454.238,277.696C454.238,274.779 454.862,272.159 456.11,269.837C457.357,267.514 459.075,265.7 461.263,264.395C463.451,263.09 465.908,262.437 468.634,262.437C471.359,262.437 473.806,263.08 475.975,264.366C478.144,265.652 479.852,267.447 481.1,269.75C482.348,272.054 482.971,274.664 482.971,277.581L482.914,278.387ZM468.634,264.971C466.522,264.971 464.622,265.441 462.933,266.382C461.244,267.322 459.891,268.647 458.874,270.355C457.856,272.063 457.271,273.992 457.117,276.142L480.15,276.142C480.035,273.992 479.459,272.073 478.422,270.384C477.386,268.695 476.023,267.37 474.334,266.411C472.645,265.451 470.745,264.971 468.634,264.971Z" style="fill-rule:nonzero;"/>
            </g>
            <g transform="matrix(0.663895,0,0,2.23651,102.848,-309.129)">
                <path d="M514.295,292.955C511.877,292.955 509.574,292.591 507.386,291.861C505.198,291.132 503.489,290.211 502.261,289.097L503.585,286.794C504.814,287.831 506.397,288.694 508.336,289.385C510.274,290.076 512.299,290.422 514.411,290.422C517.443,290.422 519.679,289.923 521.119,288.925C522.558,287.927 523.278,286.545 523.278,284.779C523.278,283.512 522.885,282.514 522.098,281.785C521.311,281.055 520.341,280.518 519.19,280.172C518.038,279.827 516.445,279.462 514.411,279.078C512.031,278.656 510.111,278.195 508.652,277.696C507.194,277.197 505.946,276.391 504.91,275.278C503.873,274.165 503.355,272.629 503.355,270.672C503.355,268.292 504.343,266.324 506.32,264.77C508.297,263.215 511.109,262.437 514.756,262.437C516.675,262.437 518.576,262.706 520.457,263.244C522.338,263.781 523.873,264.491 525.063,265.374L523.739,267.677C522.51,266.794 521.109,266.123 519.535,265.662C517.961,265.201 516.349,264.971 514.698,264.971C511.896,264.971 509.785,265.489 508.365,266.526C506.944,267.562 506.234,268.925 506.234,270.614C506.234,271.958 506.637,273.004 507.443,273.752C508.249,274.501 509.238,275.057 510.409,275.422C511.579,275.787 513.221,276.18 515.332,276.602C517.673,277.025 519.564,277.476 521.004,277.956C522.443,278.435 523.662,279.213 524.66,280.288C525.658,281.362 526.157,282.84 526.157,284.721C526.157,287.217 525.121,289.213 523.048,290.71C520.975,292.207 518.057,292.955 514.295,292.955Z" style="fill-rule:nonzero;"/>
            </g>
            <g transform="matrix(0.663895,0,0,2.23651,102.848,-309.129)">
                <path d="M545.965,292.955C543.124,292.955 540.562,292.303 538.278,290.998C535.994,289.692 534.199,287.879 532.894,285.556C531.589,283.234 530.936,280.614 530.936,277.696C530.936,274.779 531.589,272.159 532.894,269.837C534.199,267.514 535.994,265.7 538.278,264.395C540.562,263.09 543.124,262.437 545.965,262.437C548.806,262.437 551.368,263.09 553.652,264.395C555.936,265.7 557.731,267.514 559.036,269.837C560.341,272.159 560.994,274.779 560.994,277.696C560.994,280.614 560.341,283.234 559.036,285.556C557.731,287.879 555.936,289.692 553.652,290.998C551.368,292.303 548.806,292.955 545.965,292.955ZM545.965,290.364C548.268,290.364 550.331,289.827 552.155,288.752C553.978,287.677 555.418,286.18 556.473,284.261C557.529,282.341 558.057,280.153 558.057,277.696C558.057,275.24 557.529,273.052 556.473,271.132C555.418,269.213 553.978,267.716 552.155,266.641C550.331,265.566 548.268,265.029 545.965,265.029C543.662,265.029 541.598,265.566 539.775,266.641C537.952,267.716 536.512,269.213 535.456,271.132C534.401,273.052 533.873,275.24 533.873,277.696C533.873,280.153 534.401,282.341 535.456,284.261C536.512,286.18 537.952,287.677 539.775,288.752C541.598,289.827 543.662,290.364 545.965,290.364Z" style="fill-rule:nonzero;"/>
            </g>
            <g transform="matrix(0.663895,0,0,2.23651,102.848,-309.129)">
                <rect x="569.919" y="250" width="2.879" height="42.725" style="fill-rule:nonzero;"/>
            </g>
            <g transform="matrix(0.663895,0,0,2.23651,102.848,-309.129)">
                <path d="M611.262,262.668L611.262,292.725L608.498,292.725L608.498,286.276C607.5,288.387 606.022,290.028 604.064,291.199C602.106,292.37 599.803,292.955 597.154,292.955C593.239,292.955 590.168,291.861 587.941,289.673C585.715,287.485 584.602,284.337 584.602,280.23L584.602,262.668L587.481,262.668L587.481,280C587.481,283.378 588.345,285.95 590.072,287.716C591.799,289.481 594.237,290.364 597.385,290.364C600.763,290.364 603.44,289.309 605.417,287.197C607.394,285.086 608.383,282.245 608.383,278.675L608.383,262.668L611.262,262.668Z" style="fill-rule:nonzero;"/>
            </g>
            <g transform="matrix(0.663895,0,0,2.23651,102.848,-309.129)">
                <path d="M638.382,290.825C637.653,291.516 636.741,292.044 635.647,292.408C634.553,292.773 633.411,292.955 632.221,292.955C629.611,292.955 627.596,292.236 626.175,290.796C624.755,289.357 624.045,287.351 624.045,284.779L624.045,265.144L618.517,265.144L618.517,262.668L624.045,262.668L624.045,256.104L626.924,256.104L626.924,262.668L636.482,262.668L636.482,265.144L626.924,265.144L626.924,284.491C626.924,286.449 627.394,287.936 628.335,288.954C629.275,289.971 630.667,290.479 632.509,290.479C634.39,290.479 635.945,289.923 637.173,288.81L638.382,290.825Z" style="fill-rule:nonzero;"/>
            </g>
            <g transform="matrix(0.663895,0,0,2.23651,102.848,-309.129)">
                <path d="M646.386,262.668L649.265,262.668L649.265,292.725L646.386,292.725L646.386,262.668ZM647.826,255.355C647.173,255.355 646.616,255.134 646.156,254.693C645.695,254.251 645.465,253.704 645.465,253.052C645.465,252.399 645.695,251.843 646.156,251.382C646.616,250.921 647.173,250.691 647.826,250.691C648.478,250.691 649.035,250.912 649.496,251.353C649.956,251.795 650.186,252.342 650.186,252.994C650.186,253.647 649.956,254.203 649.496,254.664C649.035,255.125 648.478,255.355 647.826,255.355Z" style="fill-rule:nonzero;"/>
            </g>
            <g transform="matrix(0.663895,0,0,2.23651,102.848,-309.129)">
                <path d="M673.161,292.955C670.321,292.955 667.758,292.303 665.474,290.998C663.19,289.692 661.396,287.879 660.09,285.556C658.785,283.234 658.133,280.614 658.133,277.696C658.133,274.779 658.785,272.159 660.09,269.837C661.396,267.514 663.19,265.7 665.474,264.395C667.758,263.09 670.321,262.437 673.161,262.437C676.002,262.437 678.564,263.09 680.848,264.395C683.132,265.7 684.927,267.514 686.232,269.837C687.537,272.159 688.19,274.779 688.19,277.696C688.19,280.614 687.537,283.234 686.232,285.556C684.927,287.879 683.132,289.692 680.848,290.998C678.564,292.303 676.002,292.955 673.161,292.955ZM673.161,290.364C675.465,290.364 677.528,289.827 679.351,288.752C681.175,287.677 682.614,286.18 683.67,284.261C684.725,282.341 685.253,280.153 685.253,277.696C685.253,275.24 684.725,273.052 683.67,271.132C682.614,269.213 681.175,267.716 679.351,266.641C677.528,265.566 675.465,265.029 673.161,265.029C670.858,265.029 668.795,265.566 666.971,266.641C665.148,267.716 663.708,269.213 662.653,271.132C661.597,273.052 661.069,275.24 661.069,277.696C661.069,280.153 661.597,282.341 662.653,284.261C663.708,286.18 665.148,287.677 666.971,288.752C668.795,289.827 670.858,290.364 673.161,290.364Z" style="fill-rule:nonzero;"/>
            </g>
            <g transform="matrix(0.663895,0,0,2.23651,102.848,-309.129)">
                <path d="M711.798,262.437C715.56,262.437 718.535,263.532 720.723,265.72C722.911,267.908 724.005,271.055 724.005,275.163L724.005,292.725L721.126,292.725L721.126,275.393C721.126,272.015 720.272,269.443 718.564,267.677C716.856,265.912 714.466,265.029 711.395,265.029C707.863,265.029 705.08,266.084 703.046,268.196C701.011,270.307 699.994,273.148 699.994,276.718L699.994,292.725L697.115,292.725L697.115,262.668L699.879,262.668L699.879,269.174C700.915,267.063 702.46,265.413 704.514,264.223C706.568,263.032 708.996,262.437 711.798,262.437Z" style="fill-rule:nonzero;"/>
            </g>
            <g transform="matrix(0.663895,0,0,2.23651,102.848,-309.129)">
                <path d="M743.468,292.955C741.049,292.955 738.746,292.591 736.558,291.861C734.37,291.132 732.662,290.211 731.433,289.097L732.758,286.794C733.986,287.831 735.569,288.694 737.508,289.385C739.447,290.076 741.472,290.422 743.583,290.422C746.615,290.422 748.851,289.923 750.291,288.925C751.731,287.927 752.45,286.545 752.45,284.779C752.45,283.512 752.057,282.514 751.27,281.785C750.483,281.055 749.514,280.518 748.362,280.172C747.21,279.827 745.617,279.462 743.583,279.078C741.203,278.656 739.283,278.195 737.825,277.696C736.366,277.197 735.118,276.391 734.082,275.278C733.046,274.165 732.527,272.629 732.527,270.672C732.527,268.292 733.516,266.324 735.493,264.77C737.47,263.215 740.282,262.437 743.928,262.437C745.848,262.437 747.748,262.706 749.629,263.244C751.51,263.781 753.045,264.491 754.235,265.374L752.911,267.677C751.683,266.794 750.281,266.123 748.708,265.662C747.134,265.201 745.521,264.971 743.871,264.971C741.068,264.971 738.957,265.489 737.537,266.526C736.117,267.562 735.406,268.925 735.406,270.614C735.406,271.958 735.809,273.004 736.616,273.752C737.422,274.501 738.41,275.057 739.581,275.422C740.752,275.787 742.393,276.18 744.504,276.602C746.846,277.025 748.736,277.476 750.176,277.956C751.615,278.435 752.834,279.213 753.832,280.288C754.83,281.362 755.329,282.84 755.329,284.721C755.329,287.217 754.293,289.213 752.22,290.71C750.147,292.207 747.23,292.955 743.468,292.955Z" style="fill-rule:nonzero;"/>
            </g>
        </g>
    </g>
</svg>
