<svg xmlns="http://www.w3.org/2000/svg" fill-rule="evenodd" stroke-linejoin="round" stroke-miterlimit="2" clip-rule="evenodd" viewBox="0 0 484 152"><path fill="#ffee70" d="M60.454 135.58v14.505a1.714 1.714 0 01-1.714 1.714H1.714A1.715 1.715 0 010 150.085v-6.336l8.168-8.168h52.286zM0 140.182v-24.849h60.454v17.718H7.13L0 140.18zM0 34.335h21.697a6.347 6.347 0 006.2 5.062c3.472 0 6.328-2.856 6.328-6.327s-2.856-6.328-6.328-6.328a6.347 6.347 0 00-6.2 5.062H0V14.086h46.882v73.53a6.347 6.347 0 00-5.062 6.2c0 3.471 2.857 6.328 6.327 6.328 3.472 0 6.328-2.857 6.328-6.328a6.347 6.347 0 00-5.062-6.2V11.554H0v-9.84A1.714 1.714 0 011.714 0H58.74a1.715 1.715 0 011.714 1.714V112.8H0V95.083h29.164V79.769a6.347 6.347 0 005.063-6.2c0-3.471-2.857-6.327-6.328-6.327-3.472 0-6.328 2.856-6.328 6.327 0 2.996 2.127 5.601 5.062 6.2v12.783H0V74.834h8.915v-20.25h12.782a6.347 6.347 0 006.2 5.063c3.472 0 6.328-2.857 6.328-6.328 0-3.472-2.856-6.328-6.328-6.328a6.347 6.347 0 00-6.2 5.063H6.384v20.248H0V34.335zm51.944 59.482a3.815 3.815 0 00-3.797-3.797c-2.082 0-3.796 1.714-3.796 3.797s1.714 3.797 3.796 3.797a3.815 3.815 0 003.797-3.797zm-20.249-20.25a3.815 3.815 0 00-3.796-3.795c-2.083 0-3.797 1.713-3.797 3.796a3.815 3.815 0 003.797 3.797c2.082 0 3.796-1.714 3.796-3.797zm0-20.248c0-2.083-1.714-3.797-3.796-3.797a3.815 3.815 0 00-3.797 3.797c0 2.082 1.714 3.796 3.797 3.796a3.815 3.815 0 003.796-3.796zm0-20.25a3.815 3.815 0 00-3.796-3.796c-2.083 0-3.797 1.714-3.797 3.797a3.815 3.815 0 003.797 3.797c2.082 0 3.796-1.714 3.796-3.797z"/><path fill-rule="nonzero" d="M127.74 32.152c7.144 0 12.923 2.942 17.336 8.826 4.413 5.883 6.62 14.373 6.62 25.469 0 7.313-1.261 13.533-3.783 18.66-2.522 5.128-5.905 8.994-10.15 11.6s-8.973 3.909-14.184 3.909c-3.11 0-6.115-.63-9.015-1.892a22.622 22.622 0 01-7.628-5.421l-8.952 7.565-2.144-.883c.589-2.101.883-4.539.883-7.313V15.256c0-3.866-.715-6.682-2.144-8.447C93.15 5.043 90.671 4.16 87.14 4.16V1.513c2.69.252 5.296.378 7.818.378 5.295 0 9.666-.588 13.112-1.765v45.517c1.85-4.287 4.518-7.607 8.007-9.961 3.488-2.354 7.376-3.53 11.662-3.53zm-5.17 65.564c5.632 0 9.856-2.543 12.671-7.629 2.816-5.085 4.224-12.965 4.224-23.64 0-10.255-1.26-17.904-3.782-22.948-2.522-5.043-6.389-7.565-11.6-7.565-3.53 0-6.767 1.366-9.708 4.098-2.942 2.732-5.044 6.577-6.305 11.537v39.968c1.934 2.018 4.161 3.552 6.683 4.603a20.136 20.136 0 007.817 1.576zM215.998 83.72c-1.513 4.623-4.35 8.595-8.51 11.915-4.161 3.32-9.183 4.98-15.067 4.98-5.968 0-11.138-1.365-15.509-4.097-4.37-2.732-7.712-6.557-10.023-11.474-2.312-4.917-3.468-10.612-3.468-17.084 0-7.313 1.177-13.66 3.53-19.04 2.354-5.379 5.674-9.519 9.961-12.418 4.287-2.9 9.288-4.35 15.004-4.35 7.565 0 13.386 2.29 17.463 6.871 4.077 4.581 6.115 11.537 6.115 20.867H176.03c-.252 2.354-.379 5.044-.379 8.07 0 5.547.904 10.38 2.711 14.5 1.807 4.118 4.203 7.291 7.187 9.519 2.984 2.227 6.115 3.341 9.393 3.341 4.035 0 7.607-.967 10.717-2.9 3.11-1.933 5.716-5.17 7.818-9.708l2.521 1.008zm-24.586-49.173c-3.95 0-7.355 1.933-10.213 5.8-2.858 3.867-4.623 9.583-5.295 17.148h27.486c.168-6.557-.778-12.02-2.837-16.391-2.06-4.371-5.106-6.557-9.141-6.557zM244.872 47.282c2.101-5.296 5.022-9.141 8.762-11.537 3.741-2.396 7.965-3.593 12.672-3.593 5.884 0 10.339 1.597 13.365 4.79 1.597 1.682 2.732 3.783 3.404 6.305.673 2.522 1.009 5.926 1.009 10.213v33.664c0 3.447.714 5.821 2.143 7.124 1.43 1.303 3.909 1.955 7.44 1.955v2.647c-7.734-.336-12.777-.504-15.13-.504-2.354 0-7.062.168-14.122.504v-2.647c3.11 0 5.274-.652 6.493-1.955 1.219-1.303 1.828-3.677 1.828-7.124V50.686c0-4.707-.672-8.3-2.017-10.78-1.345-2.48-4.077-3.72-8.196-3.72-3.446 0-6.493.967-9.14 2.9-2.648 1.934-4.729 4.644-6.242 8.133-1.513 3.488-2.27 7.418-2.27 11.789v28.116c0 3.447.61 5.821 1.829 7.124 1.219 1.303 3.383 1.955 6.493 1.955v2.647c-7.06-.336-11.768-.504-14.121-.504-2.354 0-7.397.168-15.13.504v-2.647c3.53 0 6.01-.652 7.439-1.955 1.429-1.303 2.143-3.677 2.143-7.124V15.256c0-3.866-.714-6.682-2.143-8.447-1.43-1.766-3.909-2.648-7.44-2.648V1.513c2.69.252 5.296.378 7.818.378 5.295 0 9.666-.588 13.113-1.765v47.156zM330.105 32.152c8.573 0 15.487 2.836 20.74 8.51 5.254 5.674 7.88 14.269 7.88 25.785 0 11.515-2.626 20.09-7.88 25.72-5.253 5.633-12.167 8.449-20.74 8.449-8.574 0-15.488-2.816-20.741-8.448-5.254-5.632-7.88-14.206-7.88-25.721 0-11.516 2.626-20.11 7.88-25.785 5.253-5.674 12.167-8.51 20.74-8.51zm0 2.521c-5.044 0-9.036 2.585-11.978 7.754-2.942 5.17-4.413 13.176-4.413 24.02 0 10.843 1.47 18.828 4.413 23.956 2.942 5.127 6.934 7.69 11.978 7.69 5.043 0 9.036-2.563 11.978-7.69 2.941-5.128 4.412-13.113 4.412-23.956 0-10.844-1.47-18.85-4.412-24.02-2.942-5.169-6.935-7.754-11.978-7.754zM399.199 32.152c8.573 0 15.487 2.836 20.74 8.51 5.254 5.674 7.88 14.269 7.88 25.785 0 11.515-2.626 20.09-7.88 25.72-5.253 5.633-12.167 8.449-20.74 8.449-8.574 0-15.488-2.816-20.741-8.448-5.254-5.632-7.88-14.206-7.88-25.721 0-11.516 2.626-20.11 7.88-25.785 5.253-5.674 12.167-8.51 20.74-8.51zm0 2.521c-5.044 0-9.036 2.585-11.978 7.754-2.942 5.17-4.413 13.176-4.413 24.02 0 10.843 1.47 18.828 4.413 23.956 2.942 5.127 6.934 7.69 11.978 7.69 5.043 0 9.036-2.563 11.978-7.69 2.942-5.128 4.413-13.113 4.413-23.956 0-10.844-1.471-18.85-4.413-24.02-2.942-5.169-6.935-7.754-11.978-7.754zM468.545.252c4.37 0 8.027 1.135 10.97 3.404 2.605 2.102 3.908 4.708 3.908 7.818 0 1.933-.63 3.53-1.891 4.79-1.261 1.262-2.858 1.892-4.792 1.892-1.933 0-3.572-.61-4.917-1.828-1.345-1.219-2.017-2.879-2.017-4.98 0-1.766.483-3.195 1.45-4.287.966-1.093 2.248-1.807 3.845-2.144-.252-.84-.924-1.513-2.017-2.017s-2.48-.757-4.16-.757c-1.85 0-3.49.42-4.918 1.261-1.429.84-2.522 1.976-3.278 3.405-.925 1.68-1.534 4.16-1.828 7.439-.295 3.278-.442 8.783-.442 16.517v3.278h13.491v2.522h-13.49v49.299c0 3.866 1.113 6.556 3.34 8.07 2.228 1.512 5.57 2.269 10.024 2.269v2.647l-3.026-.126c-8.574-.252-14.037-.378-16.39-.378-2.186 0-7.146.168-14.879.504v-2.647c3.53 0 6.01-.652 7.44-1.955 1.428-1.303 2.143-3.677 2.143-7.124v-50.56h-10.087v-2.521h10.087c0-7.397.462-13.113 1.387-17.148.924-4.034 2.605-7.48 5.043-10.339 1.681-1.933 3.824-3.467 6.43-4.602C462.577.82 465.435.252 468.545.252z"/><g><path fill-rule="nonzero" d="M104.102 151.797c-2.487 0-4.73-.57-6.73-1.713-2-1.144-3.572-2.731-4.715-4.765-1.142-2.033-1.714-4.327-1.714-6.882 0-2.554.572-4.848 1.714-6.882 1.143-2.033 2.715-3.622 4.715-4.764 2-1.143 4.243-1.715 6.73-1.715 2.488 0 4.73.572 6.73 1.715 2 1.142 3.572 2.73 4.715 4.764 1.143 2.034 1.714 4.328 1.714 6.882 0 2.555-.571 4.849-1.714 6.882-1.143 2.034-2.714 3.621-4.714 4.765-2 1.142-4.243 1.713-6.73 1.713zm0-2.268c2.017 0 3.824-.47 5.42-1.412 1.596-.941 2.857-2.252 3.782-3.932.923-1.681 1.386-3.597 1.386-5.748 0-2.15-.463-4.067-1.386-5.748-.925-1.68-2.186-2.99-3.782-3.932-1.596-.941-3.403-1.411-5.42-1.411-2.016 0-3.824.47-5.42 1.411-1.596.941-2.857 2.252-3.781 3.932-.924 1.681-1.386 3.597-1.386 5.748 0 2.151.462 4.067 1.386 5.748.924 1.68 2.185 2.99 3.781 3.932 1.596.941 3.404 1.412 5.42 1.412zM137.932 125.076c3.294 0 5.899.959 7.815 2.875 1.915 1.915 2.873 4.67 2.873 8.268v15.377h-2.52V136.42c0-2.957-.748-5.21-2.244-6.756-1.496-1.545-3.588-2.318-6.277-2.318-3.092 0-5.53.923-7.31 2.773-1.782 1.848-2.672 4.336-2.672 7.461v14.016h-2.521v-26.318h2.42v5.697c.907-1.848 2.26-3.293 4.058-4.335 1.799-1.043 3.925-1.564 6.378-1.564zM159.007 114.187h2.52v37.409h-2.52zM172.165 125.278h2.52v26.318h-2.52v-26.318zm1.26-6.403a2.038 2.038 0 01-1.462-.58 1.91 1.91 0 01-.605-1.436c0-.572.202-1.059.605-1.462.404-.404.89-.605 1.463-.605.57 0 1.058.193 1.462.58.403.386.605.865.605 1.436 0 .572-.202 1.059-.605 1.462a1.992 1.992 0 01-1.462.605zM198.18 125.076c3.294 0 5.899.959 7.815 2.875 1.916 1.915 2.873 4.67 2.873 8.268v15.377h-2.52V136.42c0-2.957-.748-5.21-2.244-6.756-1.495-1.545-3.588-2.318-6.277-2.318-3.092 0-5.529.923-7.31 2.773-1.782 1.848-2.672 4.336-2.672 7.461v14.016h-2.521v-26.318h2.42v5.697c.907-1.848 2.26-3.293 4.058-4.335 1.799-1.043 3.925-1.564 6.378-1.564zM241.54 139.042h-22.638c.067 2.05.588 3.874 1.563 5.47a10.002 10.002 0 003.957 3.706c1.664.874 3.538 1.31 5.622 1.31 1.714 0 3.302-.31 4.765-.932a9.272 9.272 0 003.654-2.747l1.462 1.663c-1.142 1.378-2.579 2.437-4.31 3.177-1.731.739-3.605 1.108-5.621 1.108-2.623 0-4.958-.57-7.008-1.713-2.051-1.144-3.656-2.723-4.815-4.74-1.16-2.016-1.74-4.32-1.74-6.907 0-2.554.546-4.848 1.639-6.882 1.092-2.033 2.596-3.622 4.512-4.764 1.916-1.143 4.067-1.715 6.454-1.715 2.386 0 4.528.563 6.427 1.69 1.9 1.125 3.395 2.697 4.488 4.713 1.093 2.018 1.638 4.303 1.638 6.857l-.05.706zm-12.504-11.747c-1.85 0-3.513.411-4.992 1.235-1.479.823-2.663 1.984-3.554 3.479-.891 1.496-1.403 3.185-1.538 5.067h20.167c-.1-1.882-.605-3.563-1.513-5.042a9.852 9.852 0 00-3.58-3.478c-1.478-.84-3.142-1.261-4.99-1.261zM269.016 151.797c-2.117 0-4.134-.318-6.05-.958-1.915-.638-3.412-1.444-4.487-2.42l1.16-2.016c1.075.908 2.462 1.663 4.16 2.268a15.72 15.72 0 005.318.908c2.655 0 4.613-.437 5.874-1.31 1.26-.874 1.89-2.084 1.89-3.63 0-1.11-.344-1.984-1.033-2.622-.689-.64-1.538-1.11-2.546-1.412-1.009-.302-2.404-.622-4.185-.958-2.083-.37-3.765-.773-5.042-1.21a7.901 7.901 0 01-3.276-2.117c-.908-.975-1.362-2.32-1.362-4.033 0-2.084.865-3.807 2.596-5.168 1.731-1.362 4.193-2.043 7.387-2.043 1.68 0 3.344.236 4.991.707 1.647.47 2.991 1.092 4.033 1.865l-1.16 2.016c-1.075-.773-2.302-1.36-3.68-1.764a14.99 14.99 0 00-4.235-.605c-2.454 0-4.302.453-5.545 1.361-1.245.908-1.866 2.101-1.866 3.58 0 1.177.353 2.092 1.058 2.747.706.656 1.572 1.143 2.597 1.463 1.025.32 2.462.663 4.31 1.033 2.05.37 3.706.765 4.967 1.185 1.26.42 2.327 1.101 3.201 2.042.874.94 1.311 2.235 1.311 3.882 0 2.185-.907 3.933-2.722 5.244-1.815 1.31-4.37 1.965-7.664 1.965zM296.746 151.797c-2.488 0-4.731-.57-6.731-1.713-2-1.144-3.571-2.731-4.714-4.765-1.143-2.033-1.715-4.327-1.715-6.882 0-2.554.572-4.848 1.715-6.882 1.143-2.033 2.714-3.622 4.714-4.764 2-1.143 4.243-1.715 6.73-1.715 2.488 0 4.731.572 6.731 1.715 2 1.142 3.572 2.73 4.714 4.764 1.143 2.034 1.715 4.328 1.715 6.882 0 2.555-.572 4.849-1.715 6.882-1.142 2.034-2.714 3.621-4.714 4.765-2 1.142-4.243 1.713-6.73 1.713zm0-2.268c2.016 0 3.822-.47 5.42-1.412 1.596-.941 2.857-2.252 3.78-3.932.925-1.681 1.387-3.597 1.387-5.748 0-2.15-.462-4.067-1.387-5.748-.923-1.68-2.184-2.99-3.78-3.932-1.598-.941-3.404-1.411-5.42-1.411-2.017 0-3.824.47-5.42 1.411-1.596.941-2.857 2.252-3.782 3.932-.924 1.681-1.386 3.597-1.386 5.748 0 2.151.462 4.067 1.386 5.748.925 1.68 2.186 2.99 3.782 3.932 1.596.941 3.403 1.412 5.42 1.412zM317.72 114.187h2.52v37.409h-2.52zM353.919 125.278v26.318h-2.42v-5.647c-.874 1.849-2.168 3.285-3.883 4.31-1.714 1.026-3.73 1.538-6.05 1.538-3.428 0-6.117-.958-8.067-2.873-1.949-1.916-2.923-4.673-2.923-8.269v-15.377h2.52v15.176c0 2.958.757 5.21 2.269 6.756 1.512 1.545 3.647 2.319 6.403 2.319 2.958 0 5.302-.924 7.033-2.773 1.73-1.849 2.597-4.336 2.597-7.462v-14.016h2.52zM377.665 149.932c-.639.605-1.437 1.068-2.395 1.386a9.415 9.415 0 01-3 .48c-2.285 0-4.05-.63-5.294-1.891-1.243-1.26-1.865-3.017-1.865-5.269v-17.192h-4.84v-2.168h4.84v-5.747h2.521v5.747h8.369v2.168h-8.369v16.94c0 1.715.412 3.017 1.236 3.908.823.89 2.041 1.335 3.654 1.335 1.647 0 3.009-.487 4.084-1.461l1.059 1.764zM384.673 125.278h2.52v26.318h-2.52v-26.318zm1.26-6.403c-.571 0-1.059-.193-1.462-.58a1.91 1.91 0 01-.605-1.436c0-.572.202-1.059.605-1.462a1.99 1.99 0 011.463-.605c.57 0 1.058.193 1.462.58.403.386.604.865.604 1.436 0 .572-.201 1.059-.604 1.462a1.992 1.992 0 01-1.462.605zM408.116 151.797c-2.486 0-4.73-.57-6.73-1.713-2-1.144-3.57-2.731-4.714-4.765-1.143-2.033-1.714-4.327-1.714-6.882 0-2.554.571-4.848 1.714-6.882 1.143-2.033 2.714-3.622 4.714-4.764 2-1.143 4.244-1.715 6.73-1.715 2.488 0 4.731.572 6.731 1.715 2 1.142 3.572 2.73 4.714 4.764 1.143 2.034 1.715 4.328 1.715 6.882 0 2.555-.572 4.849-1.715 6.882-1.142 2.034-2.714 3.621-4.714 4.765-2 1.142-4.243 1.713-6.73 1.713zm0-2.268c2.018 0 3.824-.47 5.42-1.412 1.597-.941 2.857-2.252 3.782-3.932.924-1.681 1.386-3.597 1.386-5.748 0-2.15-.462-4.067-1.386-5.748-.925-1.68-2.185-2.99-3.782-3.932-1.596-.941-3.402-1.411-5.42-1.411-2.016 0-3.822.47-5.42 1.411-1.596.941-2.856 2.252-3.78 3.932-.925 1.681-1.387 3.597-1.387 5.748 0 2.151.462 4.067 1.387 5.748.924 1.68 2.184 2.99 3.78 3.932 1.598.941 3.404 1.412 5.42 1.412zM441.946 125.076c3.294 0 5.9.959 7.815 2.875 1.916 1.915 2.874 4.67 2.874 8.268v15.377h-2.521V136.42c0-2.957-.748-5.21-2.243-6.756-1.496-1.545-3.588-2.318-6.277-2.318-3.093 0-5.53.923-7.31 2.773-1.782 1.848-2.673 4.336-2.673 7.461v14.016h-2.52v-26.318h2.42v5.697c.906-1.848 2.26-3.293 4.058-4.335 1.798-1.043 3.924-1.564 6.377-1.564zM469.676 151.797c-2.118 0-4.134-.318-6.05-.958-1.916-.638-3.411-1.444-4.487-2.42l1.16-2.016c1.075.908 2.461 1.663 4.159 2.268 1.697.605 3.47.908 5.319.908 2.655 0 4.612-.437 5.873-1.31 1.261-.874 1.89-2.084 1.89-3.63 0-1.11-.343-1.984-1.032-2.622-.69-.64-1.538-1.11-2.547-1.412-1.008-.302-2.403-.622-4.184-.958-2.084-.37-3.765-.773-5.042-1.21a7.898 7.898 0 01-3.277-2.117c-.907-.975-1.362-2.32-1.362-4.033 0-2.084.866-3.807 2.597-5.168 1.731-1.362 4.194-2.043 7.386-2.043 1.681 0 3.345.236 4.992.707 1.647.47 2.99 1.092 4.033 1.865l-1.16 2.016c-1.075-.773-2.302-1.36-3.68-1.764a14.994 14.994 0 00-4.235-.605c-2.454 0-4.303.453-5.546 1.361-1.243.908-1.866 2.101-1.866 3.58 0 1.177.353 2.092 1.06 2.747.705.656 1.57 1.143 2.596 1.463 1.025.32 2.462.663 4.31 1.033 2.05.37 3.706.765 4.967 1.185 1.26.42 2.327 1.101 3.2 2.042.875.94 1.312 2.235 1.312 3.882 0 2.185-.908 3.933-2.723 5.244-1.815 1.31-4.369 1.965-7.663 1.965z"/></g></svg>